<svg xmlns="http://www.w3.org/2000/svg" viewBox="0 0 64 64" role="img" aria-label="Já Passei">
  <defs>
    <linearGradient id="bg" x1="0" y1="0" x2="1" y2="1">
      <stop offset="0%" stop-color="#FFF4EC"/>
      <stop offset="100%" stop-color="#FFE0C8"/>
    </linearGradient>
    <linearGradient id="flame" x1="0.5" y1="1" x2="0.5" y2="0">
      <stop offset="0%" stop-color="#C4430F"/>
      <stop offset="45%" stop-color="#F4581C"/>
      <stop offset="100%" stop-color="#FFB347"/>
    </linearGradient>
    <linearGradient id="core" x1="0.5" y1="1" x2="0.5" y2="0">
      <stop offset="0%" stop-color="#FFD27A"/>
      <stop offset="100%" stop-color="#FFF3C4"/>
    </linearGradient>
  </defs>
  <rect width="64" height="64" rx="14" fill="url(#bg)"/>
  <!-- chama -->
  <path fill="url(#flame)" d="M32 8c2 10-8 14-8 24a14 14 0 0 0 28 0c0-12-10-16-8-24-6 6-8 12-8 12S34 14 32 8z"/>
  <!-- nucleo -->
  <path fill="url(#core)" d="M32 30c1 5-3 7-3 12a7 7 0 0 0 14 0c0-6-5-8-4-12-3 3-4 6-4 6s-1-4-3-6z"/>
</svg>
